<?xml version="1.0" encoding="UTF-8"?>
<svg width="1200pt" height="1200pt" version="1.1" viewBox="0 0 1200 1200" xmlns="http://www.w3.org/2000/svg">
 <path d="m848.4 760.8c7.1992 7.1992 7.1992 20.398 0 27.602-40.801 40.801-93.602 62.398-151.2 62.398-117.6 0-213.6-96-213.6-213.6 0-117.6 96-213.6 213.6-213.6 57.602 0 110.4 22.801 151.2 62.398 7.1992 7.1992 7.1992 20.398 0 27.602-7.1992 7.1992-20.398 7.1992-27.602 0-32.398-32.398-76.801-51.602-123.6-51.602-96 0-174 78-174 174s78 174 174 174c46.801 0 90-18 123.6-51.602 7.2031-4.793 19.203-4.793 27.602 2.4062zm-391.2-355.2c0 31.199-25.199 56.398-56.398 56.398s-56.398-25.199-56.398-56.398c0-31.199 25.199-56.398 56.398-56.398 32.398-0.003906 56.398 25.195 56.398 56.398zm-39.598 0c0-9.6016-7.1992-16.801-16.801-16.801-9.6016 0-16.801 7.1992-16.801 16.801 0 9.6016 7.1992 16.801 16.801 16.801 9.5977-0.003906 16.801-8.4023 16.801-16.801z"/>
</svg>
