<svg xmlns:inkscape="http://www.inkscape.org/namespaces/inkscape" xmlns:sodipodi="http://sodipodi.sourceforge.net/DTD/sodipodi-0.dtd" xmlns="http://www.w3.org/2000/svg" xmlns:svg="http://www.w3.org/2000/svg" xmlns:rdf="http://www.w3.org/1999/02/22-rdf-syntax-ns#" xmlns:cc="http://creativecommons.org/ns#" xmlns:dc="http://purl.org/dc/elements/1.1/" viewBox="0 0 10.583333 13.2291675" version="1.1" x="0px" y="0px"><g><path style="color:#000000;paint-order:fill markers stroke;" d="m 5.6825612,2.6455942 c -0.5778421,0 -1.1558032,0.219428 -1.5952523,0.658875 -0.8156681,0.815669 -0.874014,2.108313 -0.1756992,2.992582 l -1.18804,1.188041 a 0.26458349,0.26458349 0 0 0 0,0.374654 0.26458349,0.26458349 0 0 0 0.3751712,0 l 1.18804,-1.188041 C 5.1711825,7.3689712 6.463627,7.3117402 7.2788453,6.4965222 8.1577409,5.6176282 8.1567064,4.1833642 7.277787,3.3044692 6.8383405,2.8650222 6.2603794,2.6455942 5.6825347,2.6455942 Z m 5.291e-4,0.525033 c 0.4416108,-3.44e-4 0.8832956,0.168609 1.2216316,0.506946 0.6766745,0.676673 0.6766745,1.767621 0,2.444295 -0.6766746,0.676673 -1.7665885,0.67564 -2.4432604,-10e-4 -0.6766745,-0.676674 -0.6766745,-1.765038 0,-2.441711 0.3383359,-0.338337 0.7800207,-0.508151 1.2216288,-0.508497 z" fill="#000000" fill-rule="evenodd" stroke-width="1" stroke-linecap="round" stroke-linejoin="round"/></g></svg>