<?xml version="1.0" encoding="UTF-8"?>
<svg width="1200pt" height="1200pt" version="1.1" viewBox="0 0 1200 1200" xmlns="http://www.w3.org/2000/svg">
 <path d="m423.6 346.8c-31.199 0-56.398 25.199-56.398 56.398s25.199 56.398 56.398 56.398c31.199 0 56.398-25.199 56.398-56.398s-25.199-56.398-56.398-56.398zm0 72c-9.6016 0-16.801-7.1992-16.801-16.801s7.1992-16.801 16.801-16.801c9.6016 0 16.801 7.1992 16.801 16.801-0.003906 9.6016-7.2031 16.801-16.801 16.801zm412.8 6h-260.4c-10.801 0-19.199 8.3984-19.199 20.398v390c0 10.801 8.3984 20.398 19.199 20.398s20.398-8.3984 20.398-20.398v-177.6h145.2c10.801 0 19.199-8.3984 19.199-19.199 0-10.801-8.3984-20.398-19.199-20.398l-145.2-0.003906v-153.6h240c10.801 0 20.398-8.3984 20.398-19.199 0.003906-10.801-9.5977-20.398-20.398-20.398z"/>
</svg>
